<?xml version="1.0" encoding="UTF-8" standalone="no"?>


<svg
   xmlns:dc="http://purl.org/dc/elements/1.1/"
   xmlns:cc="http://creativecommons.org/ns#"
   xmlns:rdf="http://www.w3.org/1999/02/22-rdf-syntax-ns#"
   xmlns:svg="http://www.w3.org/2000/svg"
   xmlns="http://www.w3.org/2000/svg"
   xmlns:sodipodi="http://sodipodi.sourceforge.net/DTD/sodipodi-0.dtd"
   xmlns:inkscape="http://www.inkscape.org/namespaces/inkscape"
   width="30.499958mm"
   height="30.49791mm"
   viewBox="0 0 30.499958 30.49791"
   version="1.1"
   id="svg8"
   inkscape:version="0.92.1 r15371"
   sodipodi:docname="shirakawa.svg">
  <defs
     id="defs2" />
  <sodipodi:namedview
     id="base"
     pagecolor="#ffffff"
     bordercolor="#666666"
     borderopacity="1.0"
     inkscape:pageopacity="0.0"
     inkscape:pageshadow="2"
     inkscape:zoom="1.4142136"
     inkscape:cx="-192.40015"
     inkscape:cy="192.49471"
     inkscape:document-units="mm"
     inkscape:current-layer="layer1"
     showgrid="false"
     inkscape:window-width="1920"
     inkscape:window-height="1017"
     inkscape:window-x="-8"
     inkscape:window-y="-8"
     inkscape:window-maximized="1"
     fit-margin-top="0"
     fit-margin-left="0"
     fit-margin-right="0"
     fit-margin-bottom="0" />
  <metadata
     id="metadata5">
    <rdf:RDF>
      <cc:Work
         rdf:about="">
        <dc:format>image/svg+xml</dc:format>
        <dc:type
           rdf:resource="http://purl.org/dc/dcmitype/StillImage" />
        <dc:title></dc:title>
      </cc:Work>
    </rdf:RDF>
  </metadata>
  <g
     inkscape:label="レイヤー 1"
     inkscape:groupmode="layer"
     id="layer1"
     transform="translate(-79.372933,-179.14255)">
    <path
       style="color:#000000;font-style:normal;font-variant:normal;font-weight:normal;font-stretch:normal;font-size:medium;line-height:normal;font-family:sans-serif;font-variant-ligatures:normal;font-variant-position:normal;font-variant-caps:normal;font-variant-numeric:normal;font-variant-alternates:normal;font-feature-settings:normal;text-indent:0;text-align:start;text-decoration:none;text-decoration-line:none;text-decoration-style:solid;text-decoration-color:#000000;letter-spacing:normal;word-spacing:normal;text-transform:none;writing-mode:lr-tb;direction:ltr;text-orientation:mixed;dominant-baseline:auto;baseline-shift:baseline;text-anchor:start;white-space:normal;shape-padding:0;clip-rule:nonzero;display:inline;overflow:visible;visibility:visible;opacity:1;isolation:auto;mix-blend-mode:normal;color-interpolation:sRGB;color-interpolation-filters:linearRGB;solid-color:#000000;solid-opacity:1;vector-effect:none;fill:#574a9f;fill-opacity:1;fill-rule:nonzero;stroke:none;stroke-width:13.22834682;stroke-linecap:butt;stroke-linejoin:miter;stroke-miterlimit:4;stroke-dasharray:none;stroke-dashoffset:0;stroke-opacity:1;paint-order:markers fill stroke;color-rendering:auto;image-rendering:auto;shape-rendering:auto;text-rendering:auto;enable-background:accumulate"
       d="m 357.63086,677.07422 c -31.75386,0 -57.63867,25.88482 -57.63867,57.63867 0,19.00669 9.28263,35.894 23.53906,46.39844 l 6.62695,-11.47852 c -10.323,-8.11386 -16.9375,-20.70925 -16.9375,-34.91992 0,-24.60472 19.80543,-44.41016 44.41016,-44.41016 24.60474,0 44.4082,19.80544 44.4082,44.41016 0,16.33421 -8.73231,30.54084 -21.79883,38.25195 -0.79491,0.46912 -1.60768,0.90992 -2.43359,1.33008 -0.0589,0.0299 -0.11672,0.0621 -0.17578,0.0918 -1.66821,0.83928 -3.39814,1.57745 -5.17969,2.20508 -0.0964,0.0339 -0.19434,0.0644 -0.29101,0.0976 -0.75636,0.26057 -1.5224,0.49836 -2.29688,0.71875 -0.17634,0.0501 -0.35205,0.10049 -0.5293,0.14844 -1.02769,0.27865 -2.07058,0.52293 -3.12695,0.72852 -0.47198,0.0916 -0.94654,0.17726 -1.42383,0.2539 -0.24358,0.0392 -0.4875,0.0761 -0.73242,0.11133 -0.54702,0.0785 -1.09698,0.15042 -1.65039,0.20899 -0.16232,0.0172 -0.32543,0.0314 -0.48828,0.0469 -0.56517,0.0536 -1.13379,0.0965 -1.70508,0.12891 -0.18149,0.0103 -0.36284,0.0192 -0.54492,0.0273 -0.67403,0.0301 -1.34953,0.0508 -2.03125,0.0508 -0.68049,0 -1.35647,-0.0208 -2.0293,-0.0508 -0.18467,-0.008 -0.36867,-0.0169 -0.55273,-0.0273 -0.56407,-0.032 -1.12549,-0.0743 -1.6836,-0.12696 -0.17919,-0.017 -0.35855,-0.0336 -0.53711,-0.0527 -0.54262,-0.0578 -1.08069,-0.12805 -1.61718,-0.20508 -0.2449,-0.0352 -0.48887,-0.0721 -0.73242,-0.11133 -0.47729,-0.0766 -0.95185,-0.16229 -1.42383,-0.2539 -1.06139,-0.2065 -2.1082,-0.45023 -3.14063,-0.73047 -0.1635,-0.0443 -0.32555,-0.0926 -0.48828,-0.13867 -0.78724,-0.22344 -1.56741,-0.46554 -2.33594,-0.73047 -0.0923,-0.0318 -0.18535,-0.0615 -0.27734,-0.0937 -1.77451,-0.62491 -3.49611,-1.35842 -5.1582,-2.19336 -0.0752,-0.0378 -0.14964,-0.0771 -0.22461,-0.11524 -0.80705,-0.4112 -1.60148,-0.84279 -2.37891,-1.30078 -0.009,-0.005 -0.0183,-0.0103 -0.0273,-0.0156 l -6.58008,11.39843 c 0.97387,0.57499 1.96731,1.11846 2.97656,1.63672 0.14895,0.0765 0.29758,0.15325 0.44727,0.22852 0.48751,0.24499 0.97742,0.48537 1.47265,0.7168 0.13716,0.0642 0.27634,0.12438 0.41407,0.1875 0.86575,0.39626 1.74293,0.77104 2.63086,1.125 0.23531,0.0939 0.47022,0.18837 0.70703,0.27929 0.45361,0.17388 0.9082,0.34518 1.36718,0.50782 0.31753,0.1127 0.63896,0.21694 0.95899,0.32421 0.68232,0.22826 1.3692,0.44536 2.0625,0.64844 0.38426,0.11281 0.76874,0.22318 1.15625,0.32813 0.36545,0.0987 0.73135,0.19544 1.09961,0.28711 0.64505,0.16097 1.29392,0.31225 1.94726,0.45117 0.25718,0.0545 0.51503,0.10712 0.77344,0.1582 0.66791,0.13239 1.33974,0.2524 2.01563,0.36133 0.26115,0.042 0.52285,0.0807 0.78515,0.11914 0.73061,0.10735 1.46594,0.20376 2.20508,0.2832 0.20924,0.0224 0.41902,0.0424 0.62891,0.0625 0.73375,0.0707 1.47145,0.12726 2.21289,0.16992 0.236,0.0135 0.47224,0.0245 0.70898,0.0352 0.86811,0.0392 1.73961,0.0664 2.61719,0.0664 0.87821,0 1.75043,-0.0271 2.61914,-0.0664 0.23552,-0.0106 0.47029,-0.0217 0.70508,-0.0352 0.75249,-0.0432 1.50153,-0.0997 2.24609,-0.17187 0.18175,-0.0176 0.36367,-0.0335 0.54492,-0.0527 0.75838,-0.0808 1.51037,-0.18087 2.25977,-0.29101 0.26157,-0.0383 0.52276,-0.0773 0.7832,-0.11914 0.68411,-0.11025 1.3651,-0.23291 2.04102,-0.36719 0.22692,-0.045 0.45372,-0.0891 0.67969,-0.13672 0.68641,-0.14505 1.36764,-0.30327 2.04492,-0.47265 0.34278,-0.0855 0.68309,-0.17592 1.02343,-0.26758 0.4452,-0.12016 0.88721,-0.24838 1.32813,-0.37891 0.62245,-0.18389 1.23994,-0.37781 1.85352,-0.58203 0.34542,-0.11518 0.69068,-0.23004 1.0332,-0.35156 0.44068,-0.15608 0.87872,-0.31793 1.31445,-0.48438 0.31096,-0.11896 0.61936,-0.24301 0.92774,-0.36718 0.79235,-0.31861 1.57496,-0.65543 2.34961,-1.00782 0.18537,-0.0844 0.37231,-0.16564 0.55664,-0.25195 0.46619,-0.21809 0.92737,-0.44372 1.38671,-0.67383 0.21771,-0.10914 0.43426,-0.22023 0.6504,-0.33203 0.90087,-0.46569 1.78754,-0.9538 2.66015,-1.46484 0.0606,-0.0355 0.12313,-0.0678 0.1836,-0.10352 16.99895,-10.03882 28.44531,-28.54037 28.44531,-49.65039 0,-31.75385 -25.88286,-57.63867 -57.63672,-57.63867 z"
       transform="scale(0.26458333)"
       id="path4498"
       inkscape:connector-curvature="0" />
    <path
       style="color:#000000;font-style:normal;font-variant:normal;font-weight:normal;font-stretch:normal;font-size:medium;line-height:normal;font-family:sans-serif;font-variant-ligatures:normal;font-variant-position:normal;font-variant-caps:normal;font-variant-numeric:normal;font-variant-alternates:normal;font-feature-settings:normal;text-indent:0;text-align:start;text-decoration:none;text-decoration-line:none;text-decoration-style:solid;text-decoration-color:#000000;letter-spacing:normal;word-spacing:normal;text-transform:none;writing-mode:lr-tb;direction:ltr;text-orientation:mixed;dominant-baseline:auto;baseline-shift:baseline;text-anchor:start;white-space:normal;shape-padding:0;clip-rule:nonzero;display:inline;overflow:visible;visibility:visible;opacity:1;isolation:auto;mix-blend-mode:normal;color-interpolation:sRGB;color-interpolation-filters:linearRGB;solid-color:#000000;solid-opacity:1;vector-effect:none;fill:#574a9f;fill-opacity:1;fill-rule:nonzero;stroke:none;stroke-width:13.22834682;stroke-linecap:butt;stroke-linejoin:miter;stroke-miterlimit:4;stroke-dasharray:none;stroke-dashoffset:0;stroke-opacity:1;paint-order:markers fill stroke;color-rendering:auto;image-rendering:auto;shape-rendering:auto;text-rendering:auto;enable-background:accumulate"
       d="m 370.79492,756.60547 c -3.8355,2.29827 -8.33484,3.61914 -13.16406,3.61914 -4.82826,0 -9.32711,-1.31976 -13.16211,-3.61719 l -6.58203,11.39844 c 5.79034,3.45404 12.54377,5.44726 19.74414,5.44726 7.2018,0 13.95498,-1.9939 19.74609,-5.44921 z"
       transform="scale(0.26458333)"
       id="path4498-8"
       inkscape:connector-curvature="0" />
    <path
       style="color:#000000;font-style:normal;font-variant:normal;font-weight:normal;font-stretch:normal;font-size:medium;line-height:normal;font-family:sans-serif;font-variant-ligatures:normal;font-variant-position:normal;font-variant-caps:normal;font-variant-numeric:normal;font-variant-alternates:normal;font-feature-settings:normal;text-indent:0;text-align:start;text-decoration:none;text-decoration-line:none;text-decoration-style:solid;text-decoration-color:#000000;letter-spacing:normal;word-spacing:normal;text-transform:none;writing-mode:lr-tb;direction:ltr;text-orientation:mixed;dominant-baseline:auto;baseline-shift:baseline;text-anchor:start;white-space:normal;shape-padding:0;clip-rule:nonzero;display:inline;overflow:visible;visibility:visible;opacity:1;isolation:auto;mix-blend-mode:normal;color-interpolation:sRGB;color-interpolation-filters:linearRGB;solid-color:#000000;solid-opacity:1;vector-effect:none;fill:#574a9f;fill-opacity:1;fill-rule:nonzero;stroke:none;stroke-width:13.22834682;stroke-linecap:butt;stroke-linejoin:miter;stroke-miterlimit:4;stroke-dasharray:none;stroke-dashoffset:0;stroke-opacity:1;paint-order:markers fill stroke;color-rendering:auto;image-rendering:auto;shape-rendering:auto;text-rendering:auto;enable-background:accumulate"
       d="m 357.63281,733.80664 -10.28515,17.8125 c 3.00968,1.84733 6.52587,2.93555 10.2832,2.93555 3.7586,0 7.27481,-1.08903 10.28516,-2.9375 z"
       transform="scale(0.26458333)"
       id="path4498-8-4"
       inkscape:connector-curvature="0" />
  </g>
</svg>
